<svg xmlns="http://www.w3.org/2000/svg" width="88" height="88" viewBox="0 0 88 88">
  <path fill="#FFFFFF" fill-rule="evenodd" d="M58,38.1666667 L72,38.1666667 L72,63.8333333 C72,66.0802581 71.2006253,68.0030784 69.6018519,69.6018519 C68.0030784,71.2006253 66.0802581,72 63.8333333,72 L24.1666667,72 C21.9197419,72 19.9969216,71.2006253 18.3981481,69.6018519 C16.7993747,68.0030784 16,66.0802581 16,63.8333333 L16,38.1666667 L30,38.1666667 C29.2222183,39.9814906 28.8333333,41.9259156 28.8333333,44 C28.8333333,48.191379 30.3132568,51.7669605 33.2731481,54.7268519 C36.2330395,57.6867432 39.808621,59.1666667 44,59.1666667 C48.191379,59.1666667 51.7669605,57.6867432 54.7268519,54.7268519 C57.6867432,51.7669605 59.1666667,48.191379 59.1666667,44 C59.1666667,41.9259156 58.7777817,39.9814906 58,38.1666667 Z M44,54.5 C41.0617137,54.5 38.5771706,53.4845781 36.5462963,51.4537037 C34.5154219,49.4228294 33.5,46.9382863 33.5,44 C33.5,41.1049238 34.5262243,38.6311831 36.5787037,36.5787037 C38.6311831,34.5262243 41.1049238,33.5 44,33.5 C46.8950762,33.5 49.3688169,34.5262243 51.4212963,36.5787037 C53.4737757,38.6311831 54.5,41.1049238 54.5,44 C54.5,46.8950762 53.4737757,49.3688169 51.4212963,51.4212963 C49.3688169,53.4737757 46.8950762,54.5 44,54.5 Z M72,24.1666667 L72,33.5 L54.9537037,33.5 C51.9289972,30.3888733 48.2777992,28.8333333 44,28.8333333 C39.7222008,28.8333333 36.0710028,30.3888733 33.0462963,33.5 L16,33.5 L16,24.1666667 C16,21.9197419 16.7993747,19.9969216 18.3981481,18.3981481 C19.9969216,16.7993747 21.9197419,16 24.1666667,16 L63.8333333,16 C66.0802581,16 68.0030784,16.7993747 69.6018519,18.3981481 C71.2006253,19.9969216 72,21.9197419 72,24.1666667 Z"/>
</svg>
