<svg xmlns="http://www.w3.org/2000/svg" width="271" height="332" viewBox="0 0 271 332">
  <g fill="none" fill-rule="evenodd">
    <path fill="#1B3F54" d="M64.3968631 66.5800185C64.3968631 29.8087316 94.1311081.0000782934185 130.810607.0000782934185 167.490105.0000782934185 197.225131 29.8087316 197.225131 66.5800185 197.225131 103.351306 167.490105 133.159959 130.810607 133.159959 94.1311081 133.159959 64.3968631 103.351306 64.3968631 66.5800185M63.9668556 265.026041C63.9668556 228.254754 93.7011006 198.4461 130.380599 198.4461 167.060098 198.4461 196.795124 228.254754 196.795124 265.026041 196.795124 301.797328 167.060098 331.605981 130.380599 331.605981 93.7011006 331.605981 63.9668556 301.797328 63.9668556 265.026041"/>
    <path fill="#3E7487" d="M158.538905 261.088821C158.538905 233.510747 180.839784 211.153279 208.349798 211.153279 235.859032 211.153279 258.159911 233.510747 258.159911 261.088821 258.159911 288.666895 235.859032 311.024364 208.349798 311.024364 180.839784 311.024364 158.538905 288.666895 158.538905 261.088821M0 102.443728C0 74.8656544 22.300879 52.5081858 49.8108934 52.5081858 77.3201268 52.5081858 99.6210058 74.8656544 99.6210058 102.443728 99.6210058 130.021802 77.3201268 152.379271 49.8108934 152.379271 22.300879 152.379271 0 130.021802 0 102.443728"/>
    <path fill="#17232A" d="M21.7825427,177.547003 C21.7825427,116.261264 71.3403986,66.5801751 132.472376,66.5801751 C193.605133,66.5801751 243.162989,116.261264 243.162989,177.547003 C243.162989,238.832742 193.605133,288.513831 132.472376,288.513831 C71.3403986,288.513831 21.7825427,238.832742 21.7825427,177.547003"/>
    <path fill="#F1F1F2" d="M120.109309,170.782687 C115.632732,167.551517 116.492591,160.186455 122.799784,158.853901 C130.292505,157.270809 128.467355,165.105631 129.543545,167.745685 C129.81064,168.401001 129.671626,169.151835 129.26083,169.727291 C128.68681,170.532148 128.020634,171.502986 127.391165,171.794238 C125.405914,172.711054 122.112522,171.580497 120.109309,170.782687 C119.505611,170.346592 120.868421,171.084899 120.109309,170.782687"/>
    <path fill="#3E7487" d="M115.717,80.2503626 C115.717,52.6722888 138.017879,30.3148202 165.527893,30.3148202 C193.037127,30.3148202 215.338006,52.6722888 215.338006,80.2503626 C215.338006,107.828436 193.037127,130.185905 165.527893,130.185905 C138.017879,130.185905 115.717,107.828436 115.717,80.2503626"/>
    <path fill="#1B3F54" d="M215.490141,298.693385 C215.490141,283.372146 227.879605,270.951678 243.162599,270.951678 C258.445593,270.951678 270.835057,283.372146 270.835057,298.693385 C270.835057,314.014624 258.445593,326.435092 243.162599,326.435092 C227.879605,326.435092 215.490141,314.014624 215.490141,298.693385"/>
    <path fill="#5B94A3" d="M99.113447 69.7372789C99.113447 60.5448487 106.546813 53.0920981 115.717078 53.0920981 124.886562 53.0920981 132.320709 60.5448487 132.320709 69.7372789 132.320709 78.9297092 124.886562 86.3824597 115.717078 86.3824597 106.546813 86.3824597 99.113447 78.9297092 99.113447 69.7372789M127.695044 121.39559C127.695044 106.074351 140.084508 93.6538827 155.367502 93.6538827 170.650496 93.6538827 183.03996 106.074351 183.03996 121.39559 183.03996 136.716829 170.650496 149.137297 155.367502 149.137297 140.084508 149.137297 127.695044 136.716829 127.695044 121.39559M203.176822 231.278993C203.176822 215.957754 215.566286 203.537286 230.84928 203.537286 246.132275 203.537286 258.521739 215.957754 258.521739 231.278993 258.521739 246.600233 246.132275 259.0207 230.84928 259.0207 215.566286 259.0207 203.176822 246.600233 203.176822 231.278993"/>
    <g transform="translate(38 121)">
      <path fill="#FFFFFF" d="M40.8114078 123.015219C42.3452522 124.251472 43.8478573 124.47774 44.943572 123.11152 45.9033963 121.915979 45.5308689 120.630401 44.4234395 119.737073L42.5490879 118.226793 39.5337248 121.984877 40.8114078 123.015219zM36.9377478 128.894272C38.555938 130.199423 39.9562349 130.203337 40.9847853 128.921674 42.3554049 127.213312 41.6587709 125.807162 39.7844193 124.296882L38.5059553 123.265758 35.1485231 127.451324 36.9377478 128.894272zM40.8442089 116.852744L39.6696153 115.343247 40.4240418 114.403726 43.6448026 116.85979 45.605062 118.439751C47.7347939 120.157509 48.5142118 122.333283 46.8702493 124.383005 45.6370821 125.920687 44.1540014 126.160265 42.4342839 125.364804 43.8947161 127.217227 43.938451 128.912279 42.8427363 130.278499 40.9238689 132.670363 38.5676527 132.459754 35.7553444 130.192376L30.8992118 126.276923 31.7215836 125.251279 33.4436441 126.078057 40.8442089 116.852744zM56.4653674 128.905546L51.371036 133.673615 55.3571571 135.77501 56.4653674 128.905546zM56.9144308 126.071324L58.9004625 126.994403 56.8769438 141.307223 58.2905173 142.52312 57.6797911 143.687343 52.066889 140.728635 52.6776153 139.563629 54.6714568 140.143783 55.0650706 137.602379 50.0339986 134.950581 48.1494942 136.705919 49.7754942 138.033775 49.163987 139.197999 43.8423905 136.392745 44.4531167 135.227739 46.2329697 135.695934 56.9144308 126.071324z"/>
      <polygon fill="#FFFFFF" points="71.557 143.685 73.018 144.142 71.747 148.224 61.621 145.054 62.012 143.799 63.918 143.936 67.438 132.633 65.793 131.659 66.151 130.508 71.926 132.2 71.535 133.457 69.63 133.32 66.109 144.621 70.39 145.961"/>
      <polygon fill="#FFFFFF" points="85.992 146.242 87.508 146.453 86.92 150.689 76.413 149.222 76.595 147.92 78.496 147.742 80.124 136.014 78.343 135.322 78.509 134.127 84.481 134.85 84.301 136.153 82.399 136.331 80.771 148.059 85.212 148.678"/>
      <path fill="#FFFFFF" d="M94.1201536 143.259861C94.3021219 147.201935 95.8187847 149.215642 98.6584274 149.084109 101.497289 148.952576 103.153747 146.899722 102.961626 142.73921 102.779658 138.797919 101.159125 136.897738 98.3194821 137.030054 95.4798395 137.16237 93.9280326 139.100132 94.1201536 143.259861M105.468571 142.512942C105.691151 147.330336 102.894462 150.752541 98.634998 150.950624 94.375534 151.148706 91.8459403 148.523528 91.6132084 143.486129 91.3906291 138.668735 93.9741104 135.366319 98.3421305 135.163539 102.601595 134.965456 105.250678 137.805159 105.468571 142.512942M113.116941 141.242944C114.159549 145.04957 116.08076 146.680422 118.823561 145.925674 121.5648 145.171708 122.731584 142.803332 121.630402 138.786097 120.587794 134.980254 118.590829 133.483284 115.848809 134.238032 113.106007 134.992781 112.016541 137.225709 113.116941 141.242944M124.02801 138.012558C125.301788 142.66397 123.322786 146.620136 119.210146 147.752259 115.096725 148.885165 112.052466 146.880071 110.720895 142.016483 109.446336 137.365071 111.243371 133.572538 115.461443 132.411447 119.574863 131.279324 122.782348 133.466059 124.02801 138.012558"/>
      <polygon fill="#FFFFFF" points="136.836 139.282 137.46 140.44 132.264 143.252 131.64 142.095 133.069 140.823 127.457 130.405 125.613 130.904 125.041 129.843 129.031 127.559 141.191 134.906 136.214 125.664 134.37 126.164 133.798 125.104 138.75 122.298 139.373 123.456 137.946 124.727 144.388 136.689 141.983 137.991 129.906 130.798 134.801 139.885"/>
      <path fill="#FFFFFF" d="M151.463441,128.821459 C151.463441,128.821459 152.567747,128.605369 153.654871,127.68777 C154.874761,126.655863 155.705724,124.923229 154.705288,123.733169 C152.536507,121.151835 147.402346,127.32214 144.035542,123.316648 C142.063568,120.970195 143.105395,118.399039 145.195297,116.635088 C146.78381,115.293139 149.286069,114.325432 149.286069,114.325432 L151.596989,117.245777 L150.509865,118.163376 L148.434801,116.849612 C148.434801,116.849612 147.328934,117.268482 146.40894,118.045153 C144.904773,119.315855 144.84698,120.711043 145.552205,121.548783 C147.692871,124.096451 152.894977,118.040455 156.064193,121.812632 C158.176744,124.326633 157.125545,127.19139 154.784948,129.168299 C153.029306,130.651176 150.77696,131.40749 150.77696,131.40749 L148.312188,128.473836 L149.650006,127.344062 L151.463441,128.821459 Z"/>
      <path fill="#F1F1F2" d="M31.8458375,51.6215642 C33.4718375,51.2394923 34.7495205,51.0969983 35.9006847,50.636633 C38.4943187,49.5984623 40.9903303,48.3144502 43.5894311,47.293504 C47.0398,45.9390279 49.9286444,43.7335023 52.5910046,41.2813524 C54.4864427,39.5361921 56.0405925,37.4042623 57.6603447,35.3748969 C61.3988951,30.6913846 60.3031804,25.4934846 56.214751,21.6704169 C52.8502899,18.5253703 48.7884138,16.5578567 44.4492899,15.1681485 C41.6908692,14.2842158 38.8801228,13.8684778 35.9467625,14.3351065 C34.6425262,14.5425841 34.3293533,15.0561889 34.4105752,16.2705199 C34.574581,18.7203209 34.688604,21.1795172 34.689385,23.6347988 C34.690166,26.0094382 34.5886386,28.3895581 34.4136991,30.758717 C34.1130219,34.8370211 33.8076588,38.91924 33.335166,42.9803196 C33.0157452,45.7252869 32.406581,48.435805 31.8458375,51.6215642 M27.0966991,80.4906965 C26.443019,84.9510725 25.8338548,89.1053213 25.2254715,93.2587872 C26.3547683,95.2991137 24.6795666,97.1577994 24.8443533,99.1628939 C24.9982063,101.04037 24.8068663,102.944466 24.8810594,104.83212 C24.934166,106.192077 24.4601112,107.00398 23.0863677,107.234945 C20.637215,107.647552 18.4981112,107.686698 15.9841372,106.385462 C12.1424974,104.396809 12.4408317,101.023928 12.118287,97.9422995 C11.2092265,89.2587764 11.8933648,80.579951 12.8742755,71.9277453 C13.1585522,69.4215729 10.5055637,67.5495773 8.07046859,68.5345085 C7.03098444,68.9549442 6.0453879,69.3894726 5.75642536,67.7092959 C5.71971931,67.4955549 5.49635908,67.1588932 5.33860115,67.1463662 C4.07185187,67.0477165 3.71182017,66.0447778 3.19949741,65.1459694 C1.38137637,61.9547296 0.613673199,58.4925946 0.999477233,54.8863998 C1.26813429,52.3841421 1.58833602,52.3128951 4.1171487,51.9433502 C4.35456657,51.9089011 4.66383458,51.8376541 4.79269625,51.6701061 C5.69628991,50.4925731 6.90758963,50.5544249 8.32741095,50.8284519 C9.50434755,46.912998 13.3639499,47.9081074 16.5690911,45.9163228 C18.2942755,37.0707324 20.1740939,27.4288979 22.0539124,17.7870634 C21.9211458,17.6868478 21.7883793,17.5866322 21.6556127,17.4864166 C21.1175176,17.9037206 20.5786415,18.3218074 19.9601055,18.8009631 C18.6308778,18.184011 17.4836184,19.313785 16.2379556,19.8422656 C14.9696444,20.3809243 13.8301948,21.2546789 12.5368922,21.6962538 C11.76997,21.9585367 10.7617251,21.8403137 9.95653487,21.5882088 C8.54920922,21.1474169 7.74167608,21.4402343 7.4659902,22.9450338 C7.37852046,23.4241895 7.20436196,23.8876866 7.0130219,24.5578782 C5.52056945,23.6715967 4.1171487,22.8878796 2.76917752,22.0196056 C1.66018617,21.3047867 1.39387205,20.1883225 1.77577118,18.9904332 C2.08269625,18.0242924 2.4333562,17.1802894 1.6859585,16.2047534 C1.43682594,15.8790528 1.70235908,15.1556216 1.96711124,14.9645856 C3.79928991,14.0023595 5.66895562,13.104334 7.45037061,12.0552022 C8.66791816,11.3380345 9.79721499,10.4548847 10.9069873,9.57095203 C16.3090248,5.26794574 22.5920075,2.95985576 29.2404888,1.59989908 C32.3839326,0.957110112 35.6062553,0.495178942 38.8059297,0.399660972 C41.0481228,0.333111566 43.3090594,1.05106221 45.569996,1.36267002 C46.342385,1.46836614 47.1913101,1.23035414 47.9129354,1.45192452 C50.0129902,2.09549642 52.1138259,2.7821297 54.124068,3.65901599 C56.331117,4.62202504 58.5186415,5.68446673 60.5718375,6.93794436 C64.2650911,9.19201188 67.9614686,11.4523429 70.3817251,15.2848057 C71.3384254,16.8005663 72.7933908,17.9914092 73.9164398,19.4132177 C75.9298058,21.9608855 76.5506847,25.0049336 76.8302755,28.1554608 C77.1340767,31.579232 76.7139095,34.9489807 76.0157135,38.2819316 C75.8735752,38.9607355 75.1894369,39.5072236 74.8520536,40.1641053 C72.8980421,43.974646 69.4125291,46.0971806 66.0238576,48.3606433 C60.705385,51.9120328 55.5110882,55.65759 50.1074888,59.071183 C47.8738865,60.4820304 45.529385,61.8991413 42.6928663,62.1348045 C41.6057424,62.2248419 40.6037452,63.1009453 39.5181833,63.4924124 C38.1803648,63.9754828 36.7949066,64.3262373 35.2227942,64.7959978 C35.5336242,65.2367897 35.7593274,65.7198601 36.123264,66.0494754 C40.1273476,69.6721119 44.0642669,73.3777394 48.1948692,76.8500525 C54.4224023,82.0855334 60.7350622,87.2223646 67.1148865,92.2691584 C72.7004542,96.6880389 78.4429988,100.897876 85.2508,103.332801 C89.0260565,104.68258 92.6740133,104.483715 96.0205118,102.23043 C97.8847107,100.975387 99.5341401,99.4009059 101.282754,97.9728339 C101.613889,97.7019387 101.955959,97.4443533 102.58699,96.9503219 C102.170728,100.260568 101.796639,103.23102 101.41552,106.259409 C102.81816,107.150388 103.022777,108.209698 101.843497,110.047245 C100.871178,111.56144 100.929751,113.17585 101.028935,114.839585 C101.065641,115.459669 101.054708,116.09228 100.973486,116.706883 C100.89695,117.288603 100.87352,118.015949 100.522861,118.398804 C99.3303043,119.699258 97.947189,120.631732 96.0650277,120.8901 C90.4661833,121.658159 85.2398663,120.306032 80.1463159,118.254744 C74.4857741,115.974057 69.608555,112.372559 64.7750709,108.724869 C56.3943764,102.398761 48.0136818,96.0742185 39.6423591,89.7363663 C36.4356559,87.3084874 33.2672207,84.8305007 30.0558317,82.4096682 C29.1655147,81.7386936 28.1838231,81.1898567 27.0966991,80.4906965"/>
      <path fill="#F1F1F2" d="M134.080783,70.4660854 C132.794509,74.242177 131.922935,78.3001249 129.147333,81.3872344 C126.631797,84.1846583 123.771849,86.3800057 119.645933,86.1224204 C116.209621,85.9071135 114.350889,83.6452166 114.554725,79.8315442 C114.786676,75.4846936 115.852714,71.3648939 117.310022,67.2764116 C118.710319,63.3484308 120.60029,59.7704215 123.190019,56.5110665 C124.333373,55.0712505 125.839884,54.3501682 127.434644,53.7073792 C127.794676,53.5625364 128.289036,53.6604031 128.69827,53.7527894 C129.119218,53.8483073 129.505803,54.0886681 129.917379,54.2389915 C131.094316,54.6703882 132.801538,54.7486817 133.338852,55.5856383 C134.241665,56.993354 134.475178,58.8637837 134.842238,60.5713632 L135.132763,63.2427346 C134.809437,65.6596525 134.85161,68.2018398 134.080783,70.4660854 M104.028679,68.5157964 L103.742059,68.8203578 C100.011319,72.7859194 96.2173187,76.692761 92.2015205,80.4085667 C90.1569153,73.1280617 96.4039729,63.7579053 89.8210939,58.0072537 C81.1389412,50.4214044 73.597019,68.5220599 74.061702,74.5717923 C74.45063,79.6326789 76.7178144,85.3989892 78.7694484,89.8718922 C80.1767741,92.9394283 83.3342755,96.5088253 87.1626386,96.619219 C93.0262352,96.7875498 99.9300968,85.0826838 104.03727,77.7591174 L104.61129,81.5814021 C104.799506,82.2320204 104.87448,82.664983 105.046296,83.0548842 C106.089685,85.424826 106.744146,88.1095073 108.292048,90.087982 C112.727232,95.7548597 118.753273,97.6981023 125.784434,96.3138747 C129.326959,95.6162803 132.429791,93.9822967 135.289739,91.7274462 C138.395696,89.279211 140.43952,86.2844877 141.710175,82.5240548 C142.652036,79.7375921 142.722324,76.87127 143.291659,74.0628851 C143.641538,72.339647 142.995667,70.7886543 142.522394,69.2024297 C142.060054,67.6569176 141.336866,66.1254983 141.232215,64.5549323 C141.115068,62.7972451 140.693339,61.1875324 139.975618,59.6521985 C139.4508,58.5294708 138.66201,57.5312298 137.87244,56.291062 C138.378515,56.1994587 138.646391,56.0968943 138.906457,56.1133359 C139.639016,56.160312 140.371575,56.2260785 141.104134,56.2894961 L141.067428,56.3333405 C142.616111,56.4907102 146.453846,56.624592 148.016587,56.684095 C148.78429,56.7130635 149.554336,56.6887926 150.482921,56.6887926 C150.268933,57.3989139 150.081497,57.7841175 150.043229,58.1841969 C149.798002,60.7498722 149.487953,63.3155475 149.38252,65.8874863 C149.18259,70.8199717 149.65352,75.7109616 151.23969,80.3952568 C152.065967,82.8380115 153.531085,85.0239637 155.79046,86.4418575 C157.035342,87.2232258 158.377065,87.9364789 159.772676,88.3592633 C160.791074,88.6677394 162.017993,88.6599101 163.058258,88.4062394 C163.930613,88.1932813 164.772509,87.8918516 165.687817,87.8409609 C166.018172,87.8221705 166.364927,87.6906375 166.660918,87.530136 C167.306788,87.1785986 167.925324,86.7746045 168.632892,86.3447737 C168.525898,86.1545207 168.375169,85.8867572 168.136189,85.4639727 C168.571976,85.4945071 168.877339,85.579847 169.154587,85.5226928 C169.805924,85.389594 170.524425,85.3199128 171.067206,84.9832511 C171.829443,84.5103589 172.703359,83.9427316 173.080572,83.188766 C173.560094,82.2312375 175.714036,82.0683871 174.543348,80.29739 C174.49727,80.2277089 174.605826,80.0484169 174.653466,79.9247133 C175.082224,78.8051175 175.584394,77.7090096 175.927244,76.5635769 C176.398175,74.9906621 175.710912,73.6283566 174.931495,72.3185077 C174.407457,71.4369238 173.879515,70.5569058 173.335172,69.6878489 C173.122745,69.3488384 172.858774,69.0427111 172.74397,68.889256 C172.134806,69.1640659 171.676371,69.5383084 171.218716,69.5375255 C170.60799,69.5367426 170.411183,69.6753219 170.497091,70.2593908 C170.581437,70.8348474 170.584561,71.3805526 170.15346,71.458846 C169.919166,72.0992862 169.876993,72.6755257 169.567725,72.9800871 C168.158837,74.3666636 166.856163,76.0249182 165.16378,76.9088509 C163.701786,77.6722117 161.771203,77.6596847 160.038209,77.7191877 C159.268944,77.7458075 158.497336,77.0763988 158.355198,76.1008628 C158.170105,74.8356411 157.779616,73.5539779 157.867085,72.3067637 C158.070921,69.3872021 158.346607,66.4535477 158.896417,63.584094 C159.397806,60.9675279 160.281094,58.4229918 161.04333,55.8604482 C161.133924,55.5574527 161.475212,55.2231398 161.777451,55.1088314 C163.125422,54.5960095 164.528843,54.2256816 165.861195,53.6799765 C168.899206,52.4358941 171.919255,51.1440527 174.921342,49.8161963 C175.833526,49.4122022 176.62544,48.7287007 177.545434,48.3497606 C178.55446,47.9348054 179.65408,47.7453354 180.701373,47.4157201 C181.759601,47.0821901 182.817048,46.7361332 183.846379,46.3258757 C185.413025,45.7010942 186.927345,44.9361675 188.515858,44.382633 C189.918497,43.8932992 191.263345,42.3235161 191.424227,40.8680415 C191.49061,40.267531 192.198178,39.552712 192.023238,39.1432375 C191.455466,37.8122493 192.483235,37.245405 192.849515,36.7020487 C192.483235,36.1931415 192.166157,35.7531324 191.954512,35.4579662 C191.596823,35.6122043 191.329728,35.7805351 191.041546,35.8384723 C190.576863,35.9324244 190.067665,35.8682238 189.629535,36.020113 C187.602892,36.7200562 185.594993,37.471673 183.579284,38.2037164 C180.118763,39.4603258 176.659022,40.7208498 173.196157,41.9711957 C171.858339,42.4542661 170.524425,42.9545611 169.166301,43.3742138 C167.952659,43.7492393 166.704653,44.0107393 165.479296,44.3505327 C164.838892,44.5282588 164.21567,44.7670537 163.446405,45.0238561 C163.90484,42.2193859 164.274244,39.6450983 164.755327,37.0919499 C165.573794,32.7427505 165.671417,28.3872876 165.039604,24.0130343 C164.859979,22.7720836 164.762356,21.495118 164.383581,20.3128874 C163.029362,16.0873916 159.768771,13.3870515 156.575345,10.609984 C156.180169,11.1541232 155.948999,11.787517 155.510869,12.0067386 C154.796273,12.3637566 154.841569,12.763053 154.939192,13.4152372 C155.245336,15.4610442 155.746725,17.5342539 155.647541,19.5714487 C155.44761,23.6912484 154.898581,27.7938235 154.50731,31.904228 C154.473728,32.2581142 154.508091,32.6307909 154.583065,32.9791966 C154.668192,33.3777101 154.999327,33.7848359 154.940754,34.1418539 C154.203509,38.6766087 153.408471,43.2019683 152.645454,47.7328084 C152.510345,48.5329672 152.037852,48.8101259 151.286549,48.8594507 L148.364904,50.842623 C145.283938,50.8629793 142.204535,50.7228341 139.125912,50.3775601 C138.280111,50.2828251 137.456959,49.9907906 136.468238,49.7527786 C137.239846,48.7146079 136.596319,48.1548099 136.025422,47.785265 C135.434221,47.4024102 134.671203,47.2873189 134.19012,47.1252515 L134.19012,45.0160268 C132.782794,44.4108187 131.54416,44.4335238 130.254763,44.9087648 C129.36835,45.2360313 128.369477,45.5554684 127.463541,45.4622993 C126.01248,45.3135418 124.587192,44.8555253 123.171276,44.4585777 C122.341094,44.2260462 121.236007,44.6010717 120.930644,45.417672 C120.506572,46.5544925 119.718564,46.9670988 118.536941,47.02347 C117.686454,47.0633997 116.762555,47.0485239 116.21665,48.0772995 C114.415711,51.4752338 112.548388,54.8387191 110.671693,58.1951579 C109.717336,59.9011715 108.720025,61.5860459 107.680541,63.2411688 C107.044823,64.2542856 106.013149,65.1045521 105.667956,66.1904819 C105.305581,67.331217 104.899471,67.8886661 104.028679,68.5157964"/>
    </g>
  </g>
</svg>
